# xmcd
#
# Track frame offsets:
#	150
#	14371
#	28227
#	42171
#	53886
#	67800
#	78877
#	90194
#	103230
#	116576
#	129812
#	139244
#	150320
#	161736
#	172536
#	183840
#	198169
#	210839
#	222383
#	235834
#	251335
#	263784
#	274920
#	286611
#	300183
#
# Disc length: 4163
#
# Revision: 1
# Processed by: cddbd v1.5.1PL0 Copyright (c) Steve Scherf et al.
# Submitted via: EasyCDDAExtractor 4.6.0.1
# Normalized: r0:TDELIM( - )
#
DISCID=38104119
DTITLE=Various Artist - Forever DooWop  Vol 02
DYEAR=1900
DGENRE=Blues
TTITLE0=Harptones - A Sunday Kind Of Love
TTITLE1=Penguins - My Troubles Are Not At End
TTITLE2=Five Blue Notes - The Beat Of Our Hearts
TTITLE3=Drifters - Your Promise To Be Mine
TTITLE4=Dells - Oh What A Night
TTITLE5=Wrens - Come Back My Love
TTITLE6=Avalons - My Hearts Desire
TTITLE7=El Dorados - A Fallen Tear
TTITLE8=Monograms - My Baby Dearest Darling
TTITLE9=Six Teens - Only Jim
TTITLE10=Crests - The Angels Listened In
TTITLE11=Jaguars - The Way You Look Tonight
TTITLE12=Feathers - Johnny Darling
TTITLE13=Zodiacs (Maurice Williams and the) - May I
TTITLE14=Stereos - A Love For Only You
TTITLE15=Five Keys - Be Anything But Be Mine
TTITLE16=Drifters - Under The Boardwalk
TTITLE17=Shields - You Cheated
TTITLE18=Skyliners - Believe Me
TTITLE19=Halos (Curtis Lee and the) - Gee How I Wish You Were Here
TTITLE20=Skyliners - This I Swear
TTITLE21=Hearts (Lee Andrews and the) - Teardrops
TTITLE22=Harptones - On Sunday Afternoon
TTITLE23=Chantels (Richard Barrett and the) - Summer's Love
TTITLE24=Spaniels - I Know I Know
EXTD=
EXTT0=
EXTT1=
EXTT2=
EXTT3=
EXTT4=
EXTT5=
EXTT6=
EXTT7=
EXTT8=
EXTT9=
EXTT10=
EXTT11=
EXTT12=
EXTT13=
EXTT14=
EXTT15=
EXTT16=
EXTT17=
EXTT18=
EXTT19=
EXTT20=
EXTT21=
EXTT22=
EXTT23=
EXTT24=
PLAYORDER=
